<?xml version="1.0" encoding="utf-8"?>
<!-- Generator: Adobe Illustrator 18.1.0, SVG Export Plug-In . SVG Version: 6.00 Build 0)  -->
<svg version="1.1" id="Layer_1" xmlns="http://www.w3.org/2000/svg" xmlns:xlink="http://www.w3.org/1999/xlink" x="0px" y="0px"
	 viewBox="0 0 1440 880" enable-background="new 0 0 1440 880" xml:space="preserve">
<title>BG section 2</title>
<desc>Created with Sketch.</desc>
<g>
	<g>
		<g>
			<g id="Mask">
				
					<linearGradient id="path-2_4_" gradientUnits="userSpaceOnUse" x1="0.5" y1="841.89" x2="0.5" y2="840.89" gradientTransform="matrix(1440 0 0 -880 0 740863.1875)">
					<stop  offset="0" style="stop-color:#DD5C5C"/>
					<stop  offset="1" style="stop-color:#FE9D66"/>
				</linearGradient>
				<polyline id="path-2_3_" fill="url(#path-2_4_)" points="1440,0 1440,880 0,880 0,0 				"/>
			</g>
			<defs>
				<filter id="Adobe_OpacityMaskFilter" filterUnits="userSpaceOnUse" x="-353" y="247" width="1942" height="644">
					<feColorMatrix  type="matrix" values="1 0 0 0 0  0 1 0 0 0  0 0 1 0 0  0 0 0 1 0"/>
				</filter>
			</defs>
			<mask maskUnits="userSpaceOnUse" x="-353" y="247" width="1942" height="644" id="mask-3">
				<g filter="url(#Adobe_OpacityMaskFilter)">
					<rect id="path-2" y="0" fill="#FFFFFF" width="1440" height="880"/>
				</g>
			</mask>
			<g id="clouds" opacity="0.7" mask="url(#mask-3)">
				<g transform="translate(-353.000000, 247.000000)">
					
						<linearGradient id="Imported-Layers-Copy-3_1_" gradientUnits="userSpaceOnUse" x1="353.5" y1="594.89" x2="353.5" y2="593.89" gradientTransform="matrix(592 0 0 -150 -207626 89727.5)">
						<stop  offset="0" style="stop-color:#FFFFFF;stop-opacity:0.2"/>
						<stop  offset="1" style="stop-color:#FFD373;stop-opacity:0.5"/>
					</linearGradient>
					<path id="Imported-Layers-Copy-3" fill="url(#Imported-Layers-Copy-3_1_)" d="M1350,633.9c0-23.9,19.4-43.3,43.3-43.3
						c3.7,0,7.3,0.5,10.8,1.4c0.6-42.2,35-76.3,77.4-76.3c12.9,0,24.9,3.2,35.6,8.7c13.7-18.4,35.5-30.4,60.2-30.4
						c33.7,0,62.2,22.3,71.6,53c6.3-3,13.4-4.8,20.9-4.8c16.2,0,30.5,8,39.3,20.2c6.7-26.8,30.9-46.7,59.7-46.7
						c30.7,0,56.1,22.5,60.8,51.9c1.4-0.1,2.8-0.2,4.2-0.2c24.8,0,45.5,17.5,50.5,40.9c5.4-2.7,11.4-4.2,17.8-4.2
						c22.1,0,40,17.9,40,40h-590.8C1350.5,640.8,1350,637.4,1350,633.9"/>
					
						<linearGradient id="Imported-Layers-Copy-4_1_" gradientUnits="userSpaceOnUse" x1="353.5" y1="594.89" x2="353.5" y2="593.89" gradientTransform="matrix(592 0 0 -150 -208976 89727.5)">
						<stop  offset="0" style="stop-color:#FFFFFF;stop-opacity:0.2"/>
						<stop  offset="1" style="stop-color:#FFD373;stop-opacity:0.5"/>
					</linearGradient>
					<path id="Imported-Layers-Copy-4" fill="url(#Imported-Layers-Copy-4_1_)" d="M0,633.9c0-23.9,19.4-43.3,43.3-43.3
						c3.7,0,7.3,0.5,10.8,1.4c0.6-42.2,35-76.3,77.4-76.3c12.9,0,24.9,3.2,35.6,8.7c13.7-18.4,35.5-30.4,60.2-30.4
						c33.7,0,62.2,22.3,71.6,53c6.3-3,13.4-4.8,20.9-4.8c16.2,0,30.5,8,39.3,20.2c6.7-26.8,30.9-46.7,59.7-46.7
						c30.7,0,56.1,22.5,60.8,51.9c1.4-0.1,2.8-0.2,4.2-0.2c24.8,0,45.5,17.5,50.5,40.9c5.4-2.7,11.4-4.2,17.8-4.2
						c22.1,0,40,17.9,40,40H1.2C0.5,640.8,0,637.4,0,633.9"/>
					
						<linearGradient id="Imported-Layers-Copy_1_" gradientUnits="userSpaceOnUse" x1="353.5" y1="594.89" x2="353.5" y2="593.89" gradientTransform="matrix(398 0 0 -101 -140230 60213.8906)">
						<stop  offset="0" style="stop-color:#FFFFFF;stop-opacity:0.2"/>
						<stop  offset="1" style="stop-color:#FFD373;stop-opacity:0.5"/>
					</linearGradient>
					<path id="Imported-Layers-Copy" fill="url(#Imported-Layers-Copy_1_)" d="M264,224.2c0-16.1,13-29.2,29.1-29.2
						c2.5,0,4.9,0.4,7.2,0.9c0.4-28.4,23.5-51.4,52-51.4c8.6,0,16.8,2.1,23.9,5.9c9.2-12.4,23.9-20.5,40.4-20.5
						c22.7,0,41.8,15,48.2,35.7c4.3-2.1,9-3.2,14.1-3.2c10.9,0,20.5,5.4,26.4,13.6c4.5-18,20.7-31.4,40.1-31.4
						c20.6,0,37.7,15.1,40.9,34.9c0.9-0.1,1.9-0.1,2.8-0.1c16.7,0,30.6,11.8,33.9,27.5c3.6-1.8,7.7-2.8,12-2.8
						c14.8,0,26.9,12.1,26.9,26.9H264.8C264.3,228.8,264,226.6,264,224.2"/>
					
						<linearGradient id="Imported-Layers-Copy-2_1_" gradientUnits="userSpaceOnUse" x1="353.5" y1="594.89" x2="353.5" y2="593.89" gradientTransform="matrix(398 0 0 -101 -139047 60083.8906)">
						<stop  offset="0" style="stop-color:#FFFFFF;stop-opacity:0.2"/>
						<stop  offset="1" style="stop-color:#FFD373;stop-opacity:0.5"/>
					</linearGradient>
					<path id="Imported-Layers-Copy-2" fill="url(#Imported-Layers-Copy-2_1_)" d="M1447,94.2c0-16.1,13-29.2,29.1-29.2
						c2.5,0,4.9,0.4,7.2,0.9c0.4-28.4,23.5-51.4,52-51.4c8.6,0,16.8,2.1,23.9,5.9c9.2-12.4,23.9-20.5,40.4-20.5
						c22.7,0,41.8,15,48.2,35.7c4.3-2.1,9-3.2,14.1-3.2c10.9,0,20.5,5.4,26.4,13.6c4.5-18,20.7-31.4,40.1-31.4
						c20.6,0,37.7,15.1,40.9,34.9c0.9-0.1,1.9-0.1,2.8-0.1c16.7,0,30.6,11.8,33.9,27.5c3.6-1.8,7.7-2.8,12-2.8
						c14.8,0,26.9,12.1,26.9,26.9h-397.2C1447.3,98.8,1447,96.6,1447,94.2"/>
				</g>
			</g>
		</g>
	</g>
</g>
</svg>
