<svg xmlns="http://www.w3.org/2000/svg" viewBox="0 0 1440 880" enable-background="new 0 0 1440 880" preserveAspectRatio="none slice"><title>BG section 2</title><linearGradient id="a" gradientUnits="userSpaceOnUse" x1=".5" y1="841.89" x2=".5" y2="840.89" gradientTransform="matrix(1440 0 0 -880 0 740863.188)"><stop offset="0" stop-color="#dd5c5c"/><stop offset="1" stop-color="#fe9d66"/></linearGradient><path fill="url(#a)" d="M1440 0v880H0V0"/><defs><filter id="b" filterUnits="userSpaceOnUse" x="-353" y="247" width="1942" height="644"><feColorMatrix values="1 0 0 0 0 0 1 0 0 0 0 0 1 0 0 0 0 0 1 0"/></filter></defs><mask maskUnits="userSpaceOnUse" x="-353" y="247" width="1942" height="644" id="c"><path fill="#FFF" d="M0 0h1440v880H0z" filter="url(#b)"/></mask><g opacity=".7" mask="url(#c)"><g transform="translate(-353 247)"><linearGradient id="d" gradientUnits="userSpaceOnUse" x1="353.5" y1="594.89" x2="353.5" y2="593.89" gradientTransform="matrix(592 0 0 -150 -207626 89727.5)"><stop offset="0" stop-color="#fff" stop-opacity=".2"/><stop offset="1" stop-color="#ffd373" stop-opacity=".5"/></linearGradient><path fill="url(#d)" d="M1350 633.9c0-23.9 19.4-43.3 43.3-43.3 3.7 0 7.3.5 10.8 1.4.6-42.2 35-76.3 77.4-76.3 12.9 0 24.9 3.2 35.6 8.7 13.7-18.4 35.5-30.4 60.2-30.4 33.7 0 62.2 22.3 71.6 53 6.3-3 13.4-4.8 20.9-4.8 16.2 0 30.5 8 39.3 20.2 6.7-26.8 30.9-46.7 59.7-46.7 30.7 0 56.1 22.5 60.8 51.9 1.4-.1 2.8-.2 4.2-.2 24.8 0 45.5 17.5 50.5 40.9 5.4-2.7 11.4-4.2 17.8-4.2 22.1 0 40 17.9 40 40h-590.8c-.8-3.3-1.3-6.7-1.3-10.2"/><linearGradient id="e" gradientUnits="userSpaceOnUse" x1="353.5" y1="594.89" x2="353.5" y2="593.89" gradientTransform="matrix(592 0 0 -150 -208976 89727.5)"><stop offset="0" stop-color="#fff" stop-opacity=".2"/><stop offset="1" stop-color="#ffd373" stop-opacity=".5"/></linearGradient><path fill="url(#e)" d="M0 633.9c0-23.9 19.4-43.3 43.3-43.3 3.7 0 7.3.5 10.8 1.4.6-42.2 35-76.3 77.4-76.3 12.9 0 24.9 3.2 35.6 8.7 13.7-18.4 35.5-30.4 60.2-30.4 33.7 0 62.2 22.3 71.6 53 6.3-3 13.4-4.8 20.9-4.8 16.2 0 30.5 8 39.3 20.2 6.7-26.8 30.9-46.7 59.7-46.7 30.7 0 56.1 22.5 60.8 51.9 1.4-.1 2.8-.2 4.2-.2 24.8 0 45.5 17.5 50.5 40.9 5.4-2.7 11.4-4.2 17.8-4.2 22.1 0 40 17.9 40 40H1.2c-.7-3.3-1.2-6.7-1.2-10.2"/><linearGradient id="f" gradientUnits="userSpaceOnUse" x1="353.5" y1="594.89" x2="353.5" y2="593.89" gradientTransform="matrix(398 0 0 -101 -140230 60213.89)"><stop offset="0" stop-color="#fff" stop-opacity=".2"/><stop offset="1" stop-color="#ffd373" stop-opacity=".5"/></linearGradient><path fill="url(#f)" d="M264 224.2c0-16.1 13-29.2 29.1-29.2 2.5 0 4.9.4 7.2.9.4-28.4 23.5-51.4 52-51.4 8.6 0 16.8 2.1 23.9 5.9 9.2-12.4 23.9-20.5 40.4-20.5 22.7 0 41.8 15 48.2 35.7 4.3-2.1 9-3.2 14.1-3.2 10.9 0 20.5 5.4 26.4 13.6 4.5-18 20.7-31.4 40.1-31.4 20.6 0 37.7 15.1 40.9 34.9.9-.1 1.9-.1 2.8-.1 16.7 0 30.6 11.8 33.9 27.5 3.6-1.8 7.7-2.8 12-2.8 14.8 0 26.9 12.1 26.9 26.9H264.8c-.5-2.2-.8-4.4-.8-6.8"/><linearGradient id="g" gradientUnits="userSpaceOnUse" x1="353.5" y1="594.89" x2="353.5" y2="593.89" gradientTransform="matrix(398 0 0 -101 -139047 60083.89)"><stop offset="0" stop-color="#fff" stop-opacity=".2"/><stop offset="1" stop-color="#ffd373" stop-opacity=".5"/></linearGradient><path fill="url(#g)" d="M1447 94.2c0-16.1 13-29.2 29.1-29.2 2.5 0 4.9.4 7.2.9.4-28.4 23.5-51.4 52-51.4 8.6 0 16.8 2.1 23.9 5.9 9.2-12.4 23.9-20.5 40.4-20.5 22.7 0 41.8 15 48.2 35.7 4.3-2.1 9-3.2 14.1-3.2 10.9 0 20.5 5.4 26.4 13.6 4.5-18 20.7-31.4 40.1-31.4 20.6 0 37.7 15.1 40.9 34.9.9-.1 1.9-.1 2.8-.1 16.7 0 30.6 11.8 33.9 27.5 3.6-1.8 7.7-2.8 12-2.8 14.8 0 26.9 12.1 26.9 26.9h-397.2c-.4-2.2-.7-4.4-.7-6.8"/></g></g></svg>