<svg xmlns:dc="http://purl.org/dc/elements/1.1/" xmlns:cc="http://creativecommons.org/ns#" xmlns:rdf="http://www.w3.org/1999/02/22-rdf-syntax-ns#" xmlns:svg="http://www.w3.org/2000/svg" xmlns="http://www.w3.org/2000/svg" class="doughnut" viewBox="0 0 500 500" preserveAspectRatio="xMinYMin" style="height:551.4px;width:614.4px;perspective-origin:307.2px 275.7px;transform-origin:307.2px 275.7px"><svg class="pies" viewBox="0 0 500 500" preserveAspectRatio="xMinYMin" style="height:auto;width:auto;perspective-origin:0 0;transform-origin:0 0"><g style="height:auto;overflow-x:visible;overflow-y:visible;width:auto;perspective-origin:0 0;transform-origin:0 0"><path class="second-tick" style="height:auto;overflow-x:visible;overflow-y:visible;width:auto;perspective-origin:0 0;transform-origin:0 0" stroke="#fff" stroke-width="3" d="M135 449.186l5-8.66M50.814 365l8.66-5M20 250h10m20.814-115l8.66 5M135 50.814l5 8.66M250 20v10m115 20.814l-5 8.66M449.186 135l-8.66 5M480 250h-10m-20.814 115l-8.66-5M365 449.186l-5-8.66M250 480v-10"/><text class="hour-label" text-anchor="middle" x="200" y="7" style="height:21.4625px;line-height:34.2857px;overflow-x:visible;overflow-y:visible;width:10.675px;perspective-origin:5.3375px 10.725px;transform-origin:0 0" display="block" font-size="24" white-space="nowrap" fill="#fff" transform="translate(250 250)">3</text><text class="hour-label" text-anchor="middle" y="207" style="height:21.4625px;line-height:34.2857px;overflow-x:visible;overflow-y:visible;width:10.675px;perspective-origin:5.3375px 10.725px;transform-origin:0 0" display="block" font-size="24" white-space="nowrap" fill="#fff" transform="translate(250 250)">6</text><text class="hour-label" text-anchor="middle" x="-200" y="7" style="height:21.4625px;line-height:34.2857px;overflow-x:visible;overflow-y:visible;width:10.675px;perspective-origin:5.3375px 10.725px;transform-origin:0 0" display="block" font-size="24" white-space="nowrap" fill="#fff" transform="translate(250 250)">9</text><text class="hour-label" text-anchor="middle" y="-193" style="height:21.4625px;line-height:34.2857px;overflow-x:visible;overflow-y:visible;width:21.35px;perspective-origin:10.675px 10.725px;transform-origin:0 0" display="block" font-size="24" white-space="nowrap" fill="#fff" transform="translate(250 250)">12</text></g></svg><svg class="clickPie" viewBox="0 0 500 500" preserveAspectRatio="xMinYMin" style="height:auto;width:auto;perspective-origin:0 0;transform-origin:0 0"><g style="height:auto;overflow-x:visible;overflow-y:visible;width:auto;perspective-origin:0 0;transform-origin:0 0" fill="none"><path d="M250 490a240 240 0 0 1-119.995-32.15l39.999-69.284A160 160 0 0 0 250 410z" style="height:auto;overflow-x:visible;overflow-y:visible;width:auto;perspective-origin:0 0;transform-origin:0 0;d:path('M 1.46958e-14 -240 A 240 240 0 0 1 119.995 -207.849 L 79.9964 -138.566 A 160 160 0 0 0 9.79717e-15 -160 Z')"/><path d="M130.005 457.85a240 240 0 0 1-87.839-87.828l69.278-40.007a160 160 0 0 0 58.56 58.551z" style="height:auto;overflow-x:visible;overflow-y:visible;width:auto;perspective-origin:0 0;transform-origin:0 0;d:path('M 119.995 -207.849 A 240 240 0 0 1 207.834 -120.022 L 138.556 -80.0145 A 160 160 0 0 0 79.9964 -138.566 Z')"/><path d="M42.166 370.022A240 240 0 0 1 10 250.057l80-.02a160 160 0 0 0 21.444 79.978z" style="height:auto;overflow-x:visible;overflow-y:visible;width:auto;perspective-origin:0 0;transform-origin:0 0;d:path('M 207.834 -120.022 A 240 240 0 0 1 240 -0.0565119 L 160 -0.0376746 A 160 160 0 0 0 138.556 -80.0145 Z')"/><path d="M10 250.057a240 240 0 0 1 32.104-119.97l69.298 39.971A160 160 0 0 0 90 250.038z" style="height:auto;overflow-x:visible;overflow-y:visible;width:auto;perspective-origin:0 0;transform-origin:0 0;d:path('M 240 -0.0565119 A 240 240 0 0 1 207.896 119.913 L 138.598 79.942 A 160 160 0 0 0 160 -0.0376746 Z')"/><path d="M42.104 130.087a240 240 0 0 1 87.76-87.855l40.045 69.256a160 160 0 0 0-58.507 58.57z" style="height:auto;overflow-x:visible;overflow-y:visible;width:auto;perspective-origin:0 0;transform-origin:0 0;d:path('M 207.896 119.913 A 240 240 0 0 1 120.136 207.768 L 80.0906 138.512 A 160 160 0 0 0 138.598 79.942 Z')"/><path d="M129.864 42.232A240 240 0 0 1 249.774 10l.075 80a160 160 0 0 0-79.94 21.488z" style="height:auto;overflow-x:visible;overflow-y:visible;width:auto;perspective-origin:0 0;transform-origin:0 0;d:path('M 120.136 207.768 A 240 240 0 0 1 0.226048 240 L 0.150698 160 A 160 160 0 0 0 80.0906 138.512 Z')"/><path d="M249.774 10a240 240 0 0 1 120.09 32.075l-39.955 69.309A160 160 0 0 0 249.85 90z" style="height:auto;overflow-x:visible;overflow-y:visible;width:auto;perspective-origin:0 0;transform-origin:0 0;d:path('M 0.226048 240 A 240 240 0 0 1 -119.864 207.925 L -79.9094 138.616 A 160 160 0 0 0 0.150698 160 Z')"/><path d="M369.864 42.075a240 240 0 0 1 87.932 87.838l-69.265 40.029a160 160 0 0 0-58.622-58.558z" style="height:auto;overflow-x:visible;overflow-y:visible;width:auto;perspective-origin:0 0;transform-origin:0 0;d:path('M -119.864 207.925 A 240 240 0 0 1 -207.796 120.087 L -138.531 80.058 A 160 160 0 0 0 -79.9094 138.616 Z')"/><path d="M457.796 129.913A240 240 0 0 1 490 249.943l-80 .02a160 160 0 0 0-21.47-80.021z" style="height:auto;overflow-x:visible;overflow-y:visible;width:auto;perspective-origin:0 0;transform-origin:0 0;d:path('M -207.796 120.087 A 240 240 0 0 1 -240 0.0565119 L -160 0.0376746 A 160 160 0 0 0 -138.531 80.058 Z')"/><path d="M490 249.943a240 240 0 0 1-32.141 120.035l-69.287-39.993A160 160 0 0 0 410 249.962z" style="height:auto;overflow-x:visible;overflow-y:visible;width:auto;perspective-origin:0 0;transform-origin:0 0;d:path('M -240 0.0565119 A 240 240 0 0 1 -207.859 -119.978 L -138.572 -79.9855 A 160 160 0 0 0 -160 0.0376746 Z')"/><path d="M457.859 369.978a240 240 0 0 1-87.854 87.865l-40.001-69.281a160 160 0 0 0 58.568-58.577z" style="height:auto;overflow-x:visible;overflow-y:visible;width:auto;perspective-origin:0 0;transform-origin:0 0;d:path('M -207.859 -119.978 A 240 240 0 0 1 -120.005 -207.843 L -80.0036 -138.562 A 160 160 0 0 0 -138.572 -79.9855 Z')"/><path d="M370.005 457.843A240 240 0 0 1 250 490v-80a160 160 0 0 0 80.004-21.438z" style="height:auto;overflow-x:visible;overflow-y:visible;width:auto;perspective-origin:0 0;transform-origin:0 0;d:path('M -120.005 -207.843 A 240 240 0 0 1 1.69076e-13 -240 L 1.12717e-13 -160 A 160 160 0 0 0 -80.0036 -138.562 Z')"/></g></svg></svg>