<svg xmlns:dc="http://purl.org/dc/elements/1.1/" xmlns:cc="http://creativecommons.org/ns#" xmlns:rdf="http://www.w3.org/1999/02/22-rdf-syntax-ns#" xmlns:svg="http://www.w3.org/2000/svg" xmlns="http://www.w3.org/2000/svg" width="256" height="56.88" viewBox="0 0 239.99999 53.325001"><g transform="translate(120 43.325)"><svg width="60" height="84" viewBox="0 0 24 24" class="flamesOn flameOn0" y="-57" x="-130" text-anchor="middle" fill="#fd7c34"><path d="M11.71 19c-1.78 0-3.21-1.41-3.21-3.14 0-1.62 1.03-2.76 2.8-3.12 1.77-.36 3.6-1.21 4.62-2.58.39 1.29.58 2.65.58 4.04 0 2.64-2.14 4.8-4.79 4.8M13.5.67s.74 2.65.74 4.8c0 2.06-1.35 3.73-3.41 3.73-2.07 0-3.63-1.67-3.63-3.73l.03-.37C5.21 7.5 4 10.61 4 14a8 8 0 0 0 8 8 8 8 0 0 0 8-8C20 8.6 17.41 3.8 13.5.67z"/></svg><svg width="60" height="84" viewBox="0 0 24 24" class="flamesOn flameOn1" y="-57" x="-80" text-anchor="middle" fill="#fd7c34"><path d="M11.71 19c-1.78 0-3.21-1.41-3.21-3.14 0-1.62 1.03-2.76 2.8-3.12 1.77-.36 3.6-1.21 4.62-2.58.39 1.29.58 2.65.58 4.04 0 2.64-2.14 4.8-4.79 4.8M13.5.67s.74 2.65.74 4.8c0 2.06-1.35 3.73-3.41 3.73-2.07 0-3.63-1.67-3.63-3.73l.03-.37C5.21 7.5 4 10.61 4 14a8 8 0 0 0 8 8 8 8 0 0 0 8-8C20 8.6 17.41 3.8 13.5.67z"/></svg><svg width="60" height="84" viewBox="0 0 24 24" class="flamesOn flameOn2" y="-57" x="-30" text-anchor="middle" fill="#fd7c34"><path d="M11.71 19c-1.78 0-3.21-1.41-3.21-3.14 0-1.62 1.03-2.76 2.8-3.12 1.77-.36 3.6-1.21 4.62-2.58.39 1.29.58 2.65.58 4.04 0 2.64-2.14 4.8-4.79 4.8M13.5.67s.74 2.65.74 4.8c0 2.06-1.35 3.73-3.41 3.73-2.07 0-3.63-1.67-3.63-3.73l.03-.37C5.21 7.5 4 10.61 4 14a8 8 0 0 0 8 8 8 8 0 0 0 8-8C20 8.6 17.41 3.8 13.5.67z"/></svg><svg width="60" height="84" viewBox="0 0 24 24" class="flamesOn flameOn3" y="-57" x="20" text-anchor="middle" fill="#a8b1b6"><path d="M11.71 19c-1.78 0-3.21-1.41-3.21-3.14 0-1.62 1.03-2.76 2.8-3.12 1.77-.36 3.6-1.21 4.62-2.58.39 1.29.58 2.65.58 4.04 0 2.64-2.14 4.8-4.79 4.8M13.5.67s.74 2.65.74 4.8c0 2.06-1.35 3.73-3.41 3.73-2.07 0-3.63-1.67-3.63-3.73l.03-.37C5.21 7.5 4 10.61 4 14a8 8 0 0 0 8 8 8 8 0 0 0 8-8C20 8.6 17.41 3.8 13.5.67z"/></svg><svg width="60" height="84" viewBox="0 0 24 24" class="flamesOn flameOn4" y="-57" x="70" text-anchor="middle" fill="#a8b1b6"><path d="M11.71 19c-1.78 0-3.21-1.41-3.21-3.14 0-1.62 1.03-2.76 2.8-3.12 1.77-.36 3.6-1.21 4.62-2.58.39 1.29.58 2.65.58 4.04 0 2.64-2.14 4.8-4.79 4.8M13.5.67s.74 2.65.74 4.8c0 2.06-1.35 3.73-3.41 3.73-2.07 0-3.63-1.67-3.63-3.73l.03-.37C5.21 7.5 4 10.61 4 14a8 8 0 0 0 8 8 8 8 0 0 0 8-8C20 8.6 17.41 3.8 13.5.67z"/></svg></g></svg>