<svg xmlns="http://www.w3.org/2000/svg" id="Layer_1" viewBox="0 0 520 175" width="520" height="175"><g id="g3" transform="translate(-380.135 -255.092)"><g id="g5" fill="#f27421"><path d="M531.4 279.7c2.5 1.3 5.9-.2 7.5-3.4 1.6-3.2.9-6.8-1.7-8.1-2.5-1.3-5.9.2-7.5 3.4-1.6 3.2-.9 6.8 1.7 8.1z" id="path7"/><path d="M403.9 321.1c1.3-2.5-.2-5.9-3.4-7.5-3.2-1.6-6.8-.9-8.1 1.7-1.3 2.5.2 5.9 3.4 7.5 3.2 1.5 6.8.8 8.1-1.7z" id="path9"/><path d="M398.2 393.4c-.9-2.7-4.3-4-7.7-2.9-3.4 1.1-5.4 4.2-4.5 6.9.9 2.7 4.3 4 7.7 2.9 3.3-1.1 5.4-4.2 4.5-6.9z" id="path11"/><path d="M462 266.3c-1.1-3.4-4.2-5.4-6.9-4.5-2.7.9-4 4.3-2.9 7.7 1.1 3.4 4.2 5.4 6.9 4.5 2.7-.9 4-4.3 2.9-7.7z" id="path13"/><path d="M494.9 269.6c2.8.2 5.3-2.5 5.6-6.1.2-3.5-1.9-6.6-4.7-6.8-2.8-.2-5.3 2.5-5.6 6-.2 3.7 1.9 6.7 4.7 6.9z" id="path15"/><path d="M393.8 357.5c.2-2.8-2.5-5.3-6.1-5.6-3.5-.2-6.6 1.8-6.8 4.7-.2 2.8 2.5 5.3 6 5.6 3.6.2 6.7-1.9 6.9-4.7z" id="path17"/><path d="M568.1 301.6c2.7-2.3 3.3-5.9 1.5-8.1-1.9-2.1-5.5-2-8.2.3-2.7 2.3-3.4 6-1.5 8.1 1.8 2.2 5.5 2.1 8.2-.3z" id="path19"/><path d="M425.8 284.4c-2.3-2.7-5.9-3.3-8.1-1.5-2.1 1.9-2 5.5.3 8.2 2.3 2.7 6 3.3 8.1 1.5 2.2-1.9 2-5.5-.3-8.2z" id="path21"/></g><path d="M626.7 377.3c-7.9-15.8-21.4-23.3-35.7-23.9.1-1.4.2-2.8.2-4.3 0-25.6-20.7-46.3-46.3-46.3-20.4 0-37.7 13.2-43.9 31.6-5.1-2.3-10.7-3.7-16.6-3.7-21.9 0-39.7 17.8-39.7 39.7v.6c-.5 0-1-.1-1.5-.1-16 0-28.9 12.9-28.9 28.9 0 16 12.9 28.9 28.9 28.9h157.2c5.5 0 7.6-3.1 9.7-6.9l16.6-44.5z" id="path23" fill="#fcc7a5"/><path d="M414.4 399.8c0-16 12.9-28.9 28.9-28.9.5 0 1 0 1.5.1v-.6c0-21.9 17.8-39.7 39.7-39.7 5.9 0 11.6 1.3 16.6 3.7 6.1-18.3 23.4-31.5 43.7-31.6-14.9-12.8-34.2-20.5-55.3-20.5-47 0-85 38.1-85 85 0 16.3 4.6 31.6 12.6 44.5-1.7-3.6-2.7-7.7-2.7-12z" id="path25" fill="#f27421"/><path d="M561.8 359.3c-1.5-4.3.4-7.1 5-7.1h8.4c3.7 0 5.9 1.7 6.9 5.1l12.5 36.7c1.6 5 3 12.9 3 12.9h.2s1.5-7.8 3-12.9l12.8-36.7c1-3.5 3.2-5.1 6.9-5.1h8.1c4.6 0 6.5 2.8 5 7.1l-24 64.3c-1.2 3.4-3.5 4.9-7.1 4.9h-9.9c-3.6 0-5.8-1.6-7.1-4.9l-23.7-64.3z" id="path27" fill="#f27421"/><path d="M642.5 358.4c0-4 2.1-6.2 6.2-6.2h7.3c4 0 6.2 2.1 6.2 6.2v53.3h26.5c4 0 6.2 2.1 6.2 6.2v4.5c0 4-2.1 6.2-6.2 6.2h-40c-4 0-6.2-2.1-6.2-6.2v-64z" id="path29" fill="#f8a242"/><path d="M702.8 358.4c0-4 2.1-6.2 6.2-6.2h37.8c4 0 6.2 2.1 6.2 6.2v4.5c0 4-2.1 6.2-6.2 6.2h-24.4v12.7h18.2c4 0 6.2 2.1 6.2 6.2v4.5c0 4-2.1 6.2-6.2 6.2h-18.2v13.2h26c4 0 6.2 2.1 6.2 6.2v4.5c0 4-2.1 6.2-6.2 6.2H709c-4 0-6.2-2.1-6.2-6.2v-64.2z" id="path31" fill="#f8a242"/><path d="M765.5 358.4c0-4 2.1-6.2 6.2-6.2h8.7c3.5 0 5.7 1.2 7.4 4.1l19.7 31.4c3.1 5.3 6.7 11.8 6.7 11.8h.2s-.9-6.7-.9-11.8v-29.4c0-4 2.1-6.2 6.2-6.2h7.3c4 0 6.2 2.1 6.2 6.2v64c0 4-2.1 6.2-6.2 6.2h-8.7c-3.4 0-5.6-1.2-7.3-4.1l-19.8-31.3c-3.1-5.3-6.7-11.8-6.7-11.8h-.2s.9 6.7.9 11.8v29.2c0 4-2.1 6.2-6.2 6.2h-7.3c-4 0-6.2-2.1-6.2-6.2v-63.9z" id="path33" fill="#f8a242"/><path d="M846 413.4l3.5-5c2.2-3.2 4.8-3.5 8.5-1.5 2.6 1.3 7.6 4.9 14.6 4.9 5.8 0 8.5-2.5 8.5-5.6 0-11.3-35.4-5.8-35.4-30.8 0-14.8 12.3-24.5 28.5-24.5 9.3 0 17.8 3.2 21.6 5.9 3.2 2.4 3.6 5.2 1.9 8.4l-2.7 5.3c-2.2 4.4-5.3 3.7-8.4 2.1-3.7-1.8-7.4-3.7-12.7-3.7-6.2 0-8.7 2.5-8.7 5.6 0 11.6 35.4 5.1 35.4 30.4 0 13.4-10.1 25-28.1 25-11.2 0-21.2-4.6-25.4-7.9-2.4-2-4-4.4-1.1-8.6z" id="path35" fill="#f8a242"/><path d="M557.5 382.5l-6.7-12.7c-.2-.3-.3-.6-.5-.9-1.7-2.9-4.8-4.9-8.4-4.9-5.3 0-9.7 4.3-9.7 9.7 0 .8.1 1.6.3 2.3.1.9.4 1.8.9 2.9l6.7 12.7c3.9 7.4 1.1 14-6.3 17.8-7.4 3.9-14.4 2.5-18.3-5L495 365c-.8-1.5-1.8-2.5-2.9-3.1-1.6-1.2-3.6-1.9-5.7-1.9-5.3 0-9.7 4.3-9.7 9.7 0 .2.1.4.1.6-.1 1.1.2 2.4.9 3.8l20.6 39.4c8.3 16 26 21.2 44 11.8 17.8-9.4 23.6-26.8 15.2-42.8z" id="path37" fill="#f27421"/></g></svg>