<?xml version="1.0" encoding="UTF-8" standalone="no"?>
<!-- Created with Inkscape (http://www.inkscape.org/) -->

<svg
   xmlns:dc="http://purl.org/dc/elements/1.1/"
   xmlns:cc="http://creativecommons.org/ns#"
   xmlns:rdf="http://www.w3.org/1999/02/22-rdf-syntax-ns#"
   xmlns:svg="http://www.w3.org/2000/svg"
   xmlns="http://www.w3.org/2000/svg"
   xmlns:sodipodi="http://sodipodi.sourceforge.net/DTD/sodipodi-0.dtd"
   xmlns:inkscape="http://www.inkscape.org/namespaces/inkscape"
   width="67.73333mm"
   height="15.0495mm"
   viewBox="0 0 239.99999 53.325001"
   id="svg4349"
   version="1.1"
   inkscape:version="0.91 r13725"
   sodipodi:docname="low.svg">
  <defs
     id="defs4351" />
  <sodipodi:namedview
     id="base"
     pagecolor="#ffffff"
     bordercolor="#666666"
     borderopacity="1.0"
     inkscape:pageopacity="0.0"
     inkscape:pageshadow="2"
     inkscape:zoom="1"
     inkscape:cx="157.83721"
     inkscape:cy="-12.084977"
     inkscape:document-units="px"
     inkscape:current-layer="layer1"
     showgrid="false"
     fit-margin-top="0"
     fit-margin-left="0"
     fit-margin-right="0"
     fit-margin-bottom="0"
     inkscape:window-width="1920"
     inkscape:window-height="1001"
     inkscape:window-x="-9"
     inkscape:window-y="-9"
     inkscape:window-maximized="1" />
  <metadata
     id="metadata4354">
    <rdf:RDF>
      <cc:Work
         rdf:about="">
        <dc:format>image/svg+xml</dc:format>
        <dc:type
           rdf:resource="http://purl.org/dc/dcmitype/StillImage" />
        <dc:title />
      </cc:Work>
    </rdf:RDF>
  </metadata>
  <g
     inkscape:label="Layer 1"
     inkscape:groupmode="layer"
     id="layer1"
     transform="translate(120,43.325)">
    <svg
       inkscape:version="0.91 r13725"
       version="1.1"
       width="60"
       height="84"
       viewBox="0 0 24 24"
       class="flamesOn flameOn0"
       y="-57"
       x="-130"
       style="text-anchor:middle;opacity:1;fill:#86B37C"
       id="svg110">
      <path
         inkscape:connector-curvature="0"
         d="M 11.71,19 C 9.93,19 8.5,17.59 8.5,15.86 c 0,-1.62 1.03,-2.76 2.8,-3.12 1.77,-0.36 3.6,-1.21 4.62,-2.58 0.39,1.29 0.58,2.65 0.58,4.04 0,2.64 -2.14,4.8 -4.79,4.8 M 13.5,0.67 c 0,0 0.74,2.65 0.74,4.8 0,2.06 -1.35,3.73 -3.41,3.73 C 8.76,9.2 7.2,7.53 7.2,5.47 L 7.23,5.1 C 5.21,7.5 4,10.61 4,14 a 8,8 0 0 0 8,8 8,8 0 0 0 8,-8 C 20,8.6 17.41,3.8 13.5,0.67 Z"
         style="text-anchor:middle;fill:#86B37C;stroke:none"
         id="path112" />
    </svg>
    <svg
       inkscape:version="0.91 r13725"
       version="1.1"
       width="60"
       height="84"
       viewBox="0 0 24 24"
       class="flamesOn flameOn1"
       y="-57"
       x="-80"
       style="text-anchor:middle;opacity:1;fill:#a8b1b6;fill-opacity:1"
       id="svg114">
      <path
         inkscape:connector-curvature="0"
         d="M 11.71,19 C 9.93,19 8.5,17.59 8.5,15.86 c 0,-1.62 1.03,-2.76 2.8,-3.12 1.77,-0.36 3.6,-1.21 4.62,-2.58 0.39,1.29 0.58,2.65 0.58,4.04 0,2.64 -2.14,4.8 -4.79,4.8 M 13.5,0.67 c 0,0 0.74,2.65 0.74,4.8 0,2.06 -1.35,3.73 -3.41,3.73 C 8.76,9.2 7.2,7.53 7.2,5.47 L 7.23,5.1 C 5.21,7.5 4,10.61 4,14 a 8,8 0 0 0 8,8 8,8 0 0 0 8,-8 C 20,8.6 17.41,3.8 13.5,0.67 Z"
         style="text-anchor:middle;fill:#a8b1b6;fill-opacity:1;stroke:none"
         id="path116" />
    </svg>
    <svg
       inkscape:version="0.91 r13725"
       version="1.1"
       width="60"
       height="84"
       viewBox="0 0 24 24"
       class="flamesOn flameOn2"
       y="-57"
       x="-30"
       style="text-anchor:middle;opacity:1;fill:#a8b1b6;fill-opacity:1"
       id="svg118">
      <path
         inkscape:connector-curvature="0"
         d="M 11.71,19 C 9.93,19 8.5,17.59 8.5,15.86 c 0,-1.62 1.03,-2.76 2.8,-3.12 1.77,-0.36 3.6,-1.21 4.62,-2.58 0.39,1.29 0.58,2.65 0.58,4.04 0,2.64 -2.14,4.8 -4.79,4.8 M 13.5,0.67 c 0,0 0.74,2.65 0.74,4.8 0,2.06 -1.35,3.73 -3.41,3.73 C 8.76,9.2 7.2,7.53 7.2,5.47 L 7.23,5.1 C 5.21,7.5 4,10.61 4,14 a 8,8 0 0 0 8,8 8,8 0 0 0 8,-8 C 20,8.6 17.41,3.8 13.5,0.67 Z"
         style="text-anchor:middle;fill:#a8b1b6;fill-opacity:1;stroke:none"
         id="path120" />
    </svg>
    <svg
       inkscape:version="0.91 r13725"
       version="1.1"
       width="60"
       height="84"
       viewBox="0 0 24 24"
       class="flamesOn flameOn3"
       y="-57"
       x="20"
       style="text-anchor:middle;opacity:1;fill:#a8b1b6;fill-opacity:1"
       id="svg122">
      <path
         inkscape:connector-curvature="0"
         d="M 11.71,19 C 9.93,19 8.5,17.59 8.5,15.86 c 0,-1.62 1.03,-2.76 2.8,-3.12 1.77,-0.36 3.6,-1.21 4.62,-2.58 0.39,1.29 0.58,2.65 0.58,4.04 0,2.64 -2.14,4.8 -4.79,4.8 M 13.5,0.67 c 0,0 0.74,2.65 0.74,4.8 0,2.06 -1.35,3.73 -3.41,3.73 C 8.76,9.2 7.2,7.53 7.2,5.47 L 7.23,5.1 C 5.21,7.5 4,10.61 4,14 a 8,8 0 0 0 8,8 8,8 0 0 0 8,-8 C 20,8.6 17.41,3.8 13.5,0.67 Z"
         style="text-anchor:middle;fill:#a8b1b6;fill-opacity:1;stroke:none"
         id="path124" />
    </svg>
    <svg
       inkscape:version="0.91 r13725"
       version="1.1"
       width="60"
       height="84"
       viewBox="0 0 24 24"
       class="flamesOn flameOn4"
       y="-57"
       x="70"
       style="text-anchor:middle;opacity:1;fill:#a8b1b6;fill-opacity:1"
       id="svg126">
      <path
         inkscape:connector-curvature="0"
         d="M 11.71,19 C 9.93,19 8.5,17.59 8.5,15.86 c 0,-1.62 1.03,-2.76 2.8,-3.12 1.77,-0.36 3.6,-1.21 4.62,-2.58 0.39,1.29 0.58,2.65 0.58,4.04 0,2.64 -2.14,4.8 -4.79,4.8 M 13.5,0.67 c 0,0 0.74,2.65 0.74,4.8 0,2.06 -1.35,3.73 -3.41,3.73 C 8.76,9.2 7.2,7.53 7.2,5.47 L 7.23,5.1 C 5.21,7.5 4,10.61 4,14 a 8,8 0 0 0 8,8 8,8 0 0 0 8,-8 C 20,8.6 17.41,3.8 13.5,0.67 Z"
         style="text-anchor:middle;fill:#a8b1b6;fill-opacity:1;stroke:none"
         id="path128" />
    </svg>
  </g>
</svg>
